<svg width="35" height="28" viewBox="0 0 35 28" fill="none" xmlns="http://www.w3.org/2000/svg">
<path d="M3.22742 27.125C1.6741 27.125 0.414917 25.8652 0.414917 24.3125V3.6875C0.414917 2.13418 1.6741 0.875 3.22742 0.875H31.3524C32.9052 0.875 34.1649 2.13418 34.1649 3.6875V3.82988H29.7411L28.745 6.61719L27.7548 3.82988H22.0594V7.53125L20.413 3.82988H15.8075L11.0204 14.6504H14.8759V24.248H26.8114L28.6805 22.1914L30.5497 24.248H34.1649V24.3125C34.1649 25.8652 32.9052 27.125 31.3524 27.125H3.22742ZM28.6923 20.3281L26.2196 23.041H23.2958L27.2509 18.8398L23.2958 14.5918H26.3075L28.7391 17.3281L31.2001 14.5918H34.1649L30.1805 18.8164L34.1649 23.041H31.1532L28.6923 20.3281ZM34.1649 16.3965V21.2773L31.8622 18.8223L34.1649 16.3965ZM18.4384 21.0957H23.3016V23.041H16.1532V14.6504H23.3016V16.5898H18.4384V17.9023H23.1786V19.7949H18.4384V21.1016V21.0957ZM31.8973 7.53711L29.7352 13.4316H27.7196L25.5634 7.55469V13.4316H23.2958V5.03516H26.8817L28.7509 10.2676L30.6376 5.03516H34.1649V13.4316H31.8973V7.53711ZM20.0145 11.75H16.1532L15.4559 13.4316H12.9364L16.5927 5.03516H19.5927L23.3016 13.4316H20.7177L20.0145 11.75ZM18.0809 7.11523L16.9384 9.86328H19.2177L18.0809 7.11523Z" fill="#9CA3AF"/>
</svg>
