<svg width="34" height="28" viewBox="0 0 34 28" fill="none" xmlns="http://www.w3.org/2000/svg">
<path d="M2.8125 27.125C1.25918 27.125 0 25.8652 0 24.3125V3.6875C0 2.13418 1.25918 0.875 2.8125 0.875H30.9375C32.4902 0.875 33.75 2.13418 33.75 3.6875V3.82988H29.3262L28.3301 6.61719L27.3398 3.82988H21.6445V7.53125L19.998 3.82988H15.3926L10.6055 14.6504H14.4609V24.248H26.3965L28.2656 22.1914L30.1348 24.248H33.75V24.3125C33.75 25.8652 32.4902 27.125 30.9375 27.125H2.8125ZM28.2773 20.3281L25.8047 23.041H22.8809L26.8359 18.8398L22.8809 14.5918H25.8926L28.3242 17.3281L30.7852 14.5918H33.75L29.7656 18.8164L33.75 23.041H30.7383L28.2773 20.3281ZM33.75 16.3965V21.2773L31.4473 18.8223L33.75 16.3965ZM18.0234 21.0957H22.8867V23.041H15.7383V14.6504H22.8867V16.5898H18.0234V17.9023H22.7637V19.7949H18.0234V21.1016V21.0957ZM31.4824 7.53711L29.3203 13.4316H27.3047L25.1484 7.55469V13.4316H22.8809V5.03516H26.4668L28.3359 10.2676L30.2227 5.03516H33.75V13.4316H31.4824V7.53711ZM19.5996 11.75H15.7383L15.041 13.4316H12.5215L16.1777 5.03516H19.1777L22.8867 13.4316H20.3027L19.5996 11.75ZM17.666 7.11523L16.5234 9.86328H18.8027L17.666 7.11523Z" fill="#1D4ED8"/>
</svg>
