<svg width="34" height="28" viewBox="0 0 34 28" fill="none" xmlns="http://www.w3.org/2000/svg">
<path d="M28.2949 23.041C28.2949 23.4395 28.0254 23.7266 27.6387 23.7266C27.2402 23.7266 26.9824 23.4219 26.9824 23.041C26.9824 22.6602 27.2402 22.3555 27.6387 22.3555C28.0254 22.3555 28.2949 22.6602 28.2949 23.041ZM10.084 22.3555C9.66797 22.3555 9.42773 22.6602 9.42773 23.041C9.42773 23.4219 9.66797 23.7266 10.084 23.7266C10.4648 23.7266 10.7227 23.4395 10.7227 23.041C10.7168 22.6602 10.4648 22.3555 10.084 22.3555ZM16.9688 22.3379C16.6523 22.3379 16.459 22.543 16.4121 22.8477H17.5312C17.4785 22.5137 17.2734 22.3379 16.9688 22.3379ZM23.2852 22.3555C22.8867 22.3555 22.6465 22.6602 22.6465 23.041C22.6465 23.4219 22.8867 23.7266 23.2852 23.7266C23.6836 23.7266 23.9414 23.4395 23.9414 23.041C23.9414 22.6602 23.6836 22.3555 23.2852 22.3555ZM29.4902 23.8848C29.4902 23.9023 29.5078 23.9141 29.5078 23.9492C29.5078 23.9668 29.4902 23.9785 29.4902 24.0137C29.4727 24.0312 29.4727 24.043 29.4609 24.0605C29.4434 24.0781 29.4316 24.0898 29.3965 24.0898C29.3789 24.1074 29.3672 24.1074 29.332 24.1074C29.3145 24.1074 29.3027 24.1074 29.2676 24.0898C29.25 24.0898 29.2383 24.0723 29.2207 24.0605C29.2031 24.043 29.1914 24.0312 29.1914 24.0137C29.1738 23.9844 29.1738 23.9668 29.1738 23.9492C29.1738 23.9199 29.1738 23.9023 29.1914 23.8848C29.1914 23.8555 29.209 23.8379 29.2207 23.8203C29.2383 23.8027 29.25 23.8027 29.2676 23.791C29.2969 23.7734 29.3145 23.7734 29.332 23.7734C29.3613 23.7734 29.3789 23.7734 29.3965 23.791C29.4258 23.8086 29.4434 23.8086 29.4609 23.8203C29.4785 23.832 29.4727 23.8555 29.4902 23.8848ZM29.3613 23.9668C29.3906 23.9668 29.3906 23.9492 29.4082 23.9492C29.4258 23.9316 29.4258 23.9199 29.4258 23.9023C29.4258 23.8848 29.4258 23.873 29.4082 23.8555C29.3906 23.8555 29.3789 23.8379 29.3438 23.8379H29.25V24.043H29.2969V23.9609H29.3145L29.3789 24.043H29.4258L29.3613 23.9668ZM33.75 3.74609V24.3711C33.75 25.9238 32.4902 27.1836 30.9375 27.1836H2.8125C1.25977 27.1836 0 25.9238 0 24.3711V3.74609C0 2.19336 1.25977 0.933594 2.8125 0.933594H30.9375C32.4902 0.933594 33.75 2.19336 33.75 3.74609ZM3.75 11.9258C3.75 16.4082 7.38867 20.041 11.8652 20.041C13.459 20.041 15.0234 19.5605 16.3477 18.6875C12.0762 15.2129 12.1055 8.65625 16.3477 5.18164C15.0234 4.30273 13.459 3.82812 11.8652 3.82812C7.38867 3.82227 3.75 7.46094 3.75 11.9258ZM16.875 18.3008C21.0059 15.0781 20.9883 8.79688 16.875 5.55664C12.7617 8.79688 12.7441 15.084 16.875 18.3008ZM8.53711 22.7715C8.53711 22.2617 8.20312 21.9277 7.67578 21.9102C7.40625 21.9102 7.11914 21.9922 6.92578 22.291C6.78516 22.0508 6.54492 21.9102 6.21094 21.9102C5.98828 21.9102 5.76562 21.9922 5.58984 22.2266V21.9688H5.10938V24.1191H5.58984C5.58984 23.0117 5.44336 22.3496 6.11719 22.3496C6.71484 22.3496 6.59766 22.9473 6.59766 24.1191H7.06055C7.06055 23.0469 6.91406 22.3496 7.58789 22.3496C8.18555 22.3496 8.06836 22.9355 8.06836 24.1191H8.54883V22.7715H8.53711ZM11.168 21.9688H10.7051V22.2266C10.5469 22.0332 10.3242 21.9102 10.0195 21.9102C9.41602 21.9102 8.95312 22.3906 8.95312 23.041C8.95312 23.6973 9.41602 24.1719 10.0195 24.1719C10.3242 24.1719 10.5469 24.0605 10.7051 23.8555V24.125H11.168V21.9688ZM13.541 23.4688C13.541 22.5898 12.1992 22.9883 12.1992 22.5781C12.1992 22.2441 12.8965 22.2969 13.2832 22.5137L13.4766 22.1328C12.9258 21.7754 11.707 21.7812 11.707 22.6133C11.707 23.4512 13.0488 23.0996 13.0488 23.4922C13.0488 23.8613 12.2578 23.832 11.8359 23.5391L11.6309 23.9082C12.2871 24.3535 13.541 24.2598 13.541 23.4688ZM15.6152 24.0137L15.4863 23.6152C15.2637 23.7383 14.7715 23.873 14.7715 23.375V22.4023H15.5391V21.9688H14.7715V21.3125H14.291V21.9688H13.8457V22.3965H14.291V23.375C14.291 24.4062 15.3047 24.2188 15.6152 24.0137ZM16.3945 23.2285H18.0059C18.0059 22.2793 17.5723 21.9043 16.9863 21.9043C16.3652 21.9043 15.9199 22.3672 15.9199 23.0352C15.9199 24.2363 17.2441 24.4355 17.9004 23.8672L17.6777 23.5156C17.2207 23.8906 16.5293 23.8555 16.3945 23.2285ZM19.8574 21.9688C19.5879 21.8516 19.1777 21.8633 18.9668 22.2266V21.9688H18.4863V24.1191H18.9668V22.9062C18.9668 22.2266 19.5234 22.3145 19.7168 22.4141L19.8574 21.9688ZM20.4785 23.041C20.4785 22.373 21.1582 22.1562 21.6914 22.5488L21.9141 22.168C21.2344 21.6348 19.998 21.9277 19.998 23.0469C19.998 24.207 21.3105 24.4414 21.9141 23.9258L21.6914 23.5449C21.1523 23.9258 20.4785 23.6973 20.4785 23.041ZM24.3867 21.9688H23.9062V22.2266C23.4199 21.582 22.1543 21.9453 22.1543 23.041C22.1543 24.166 23.4668 24.4883 23.9062 23.8555V24.125H24.3867V21.9688ZM26.3613 21.9688C26.2207 21.8984 25.7168 21.7988 25.4707 22.2266V21.9688H25.0078V24.1191H25.4707V22.9062C25.4707 22.2617 25.998 22.3027 26.2207 22.4141L26.3613 21.9688ZM28.7227 21.0957H28.2598V22.2266C27.7793 21.5879 26.5078 21.9277 26.5078 23.041C26.5078 24.1777 27.8262 24.4824 28.2598 23.8555V24.125H28.7227V21.0957ZM29.168 16.6953V16.9648H29.2148V16.6953H29.3262V16.6484H29.0566V16.6953H29.168ZM29.5547 23.9492C29.5547 23.9199 29.5547 23.8848 29.5371 23.8555C29.5195 23.8379 29.5078 23.8086 29.4902 23.791C29.4727 23.7734 29.4434 23.7617 29.4258 23.7441C29.3965 23.7441 29.3613 23.7266 29.332 23.7266C29.3145 23.7266 29.2852 23.7441 29.25 23.7441C29.2207 23.7617 29.2031 23.7734 29.1855 23.791C29.1562 23.8086 29.1387 23.8379 29.1387 23.8555C29.1211 23.8848 29.1211 23.9199 29.1211 23.9492C29.1211 23.9668 29.1211 23.9961 29.1387 24.0312C29.1387 24.0488 29.1562 24.0781 29.1855 24.0957C29.2031 24.1133 29.2148 24.125 29.25 24.1426C29.2793 24.1602 29.3145 24.1602 29.332 24.1602C29.3613 24.1602 29.3965 24.1602 29.4258 24.1426C29.4434 24.125 29.4727 24.1133 29.4902 24.0957C29.5078 24.0781 29.5195 24.0488 29.5371 24.0312C29.5547 23.9961 29.5547 23.9668 29.5547 23.9492ZM29.7422 16.6426H29.6602L29.5664 16.8477L29.4727 16.6426H29.3906V16.959H29.4375V16.7188L29.5312 16.9238H29.5957L29.6777 16.7188V16.959H29.7422V16.6426ZM30 11.9258C30 7.46094 26.3613 3.82227 21.8848 3.82227C20.291 3.82227 18.7266 4.30273 17.4023 5.17578C21.627 8.65039 21.6914 15.2246 17.4023 18.6816C18.7266 19.5605 20.3027 20.0352 21.8848 20.0352C26.3613 20.041 30 16.4082 30 11.9258Z" fill="#EF4444"/>
</svg>
