<svg width="34" height="28" viewBox="0 0 34 28" fill="none" xmlns="http://www.w3.org/2000/svg">
<path d="M10.916 14.1289C10.916 14.8438 10.3477 15.3887 9.62695 15.3887C9.08789 15.3887 8.68945 15.084 8.68945 14.5098C8.68945 13.7949 9.24609 13.2207 9.96094 13.2207C10.5059 13.2207 10.916 13.5547 10.916 14.1289ZM4.7168 11.2871H4.44141C4.35352 11.2871 4.26562 11.3457 4.25391 11.4453L4.00195 13.0098L4.48242 12.9922C5.12695 12.9922 5.625 12.9043 5.74219 12.1602C5.87695 11.375 5.37891 11.2871 4.7168 11.2871ZM21.3574 11.2871H21.0938C20.9883 11.2871 20.918 11.3457 20.9062 11.4453L20.6602 13.0098L21.1289 12.9922C21.8906 12.9922 22.418 12.8164 22.418 11.9375C22.4121 11.3164 21.8555 11.2871 21.3574 11.2871ZM33.75 3.6875V24.3125C33.75 25.8652 32.4902 27.125 30.9375 27.125H2.8125C1.25977 27.125 0 25.8652 0 24.3125V3.6875C0 2.13477 1.25977 0.875 2.8125 0.875H30.9375C32.4902 0.875 33.75 2.13477 33.75 3.6875ZM7.51758 11.6211C7.51758 10.3906 6.56836 9.98047 5.48438 9.98047H3.14062C2.99414 9.98047 2.84766 10.0977 2.83594 10.2559L1.875 16.2383C1.85742 16.3555 1.94531 16.4727 2.0625 16.4727H3.17578C3.33398 16.4727 3.48047 16.3027 3.49805 16.1387L3.76172 14.5801C3.82031 14.1582 4.53516 14.3047 4.81641 14.3047C6.49219 14.3047 7.51758 13.3086 7.51758 11.6211ZM12.4512 12.1367H11.3379C11.1152 12.1367 11.1035 12.459 11.0918 12.6172C10.752 12.1191 10.2598 12.0312 9.70312 12.0312C8.26758 12.0312 7.17188 13.291 7.17188 14.6797C7.17188 15.8223 7.88672 16.5664 9.0293 16.5664C9.55664 16.5664 10.2129 16.2793 10.582 15.8691C10.5527 15.957 10.5234 16.1445 10.5234 16.2324C10.5234 16.3672 10.582 16.4668 10.7109 16.4668H11.7188C11.877 16.4668 12.0117 16.2969 12.041 16.1328L12.6387 12.3652C12.6562 12.2539 12.5684 12.1367 12.4512 12.1367ZM14.8242 17.873L18.5566 12.4473C18.5859 12.418 18.5859 12.3887 18.5859 12.3477C18.5859 12.248 18.498 12.1426 18.3984 12.1426H17.2734C17.1738 12.1426 17.0684 12.2012 17.0098 12.2891L15.457 14.5742L14.8125 12.377C14.7656 12.248 14.6367 12.1426 14.4902 12.1426H13.3945C13.2949 12.1426 13.207 12.248 13.207 12.3477C13.207 12.418 14.3496 15.6758 14.4492 15.9863C14.291 16.209 13.248 17.6621 13.248 17.8379C13.248 17.9434 13.3359 18.0254 13.4355 18.0254H14.5605C14.666 18.0195 14.7656 17.9609 14.8242 17.873ZM24.1582 11.6211C24.1582 10.3906 23.209 9.98047 22.125 9.98047H19.7988C19.6406 9.98047 19.4941 10.0977 19.4766 10.2559L18.5273 16.2324C18.5156 16.3496 18.6035 16.4668 18.7148 16.4668H19.916C20.0332 16.4668 20.1211 16.3789 20.1504 16.2793L20.4141 14.5801C20.4727 14.1582 21.1875 14.3047 21.4688 14.3047C23.1328 14.3047 24.1582 13.3086 24.1582 11.6211ZM29.0918 12.1367H27.9785C27.7559 12.1367 27.7441 12.459 27.7266 12.6172C27.4043 12.1191 26.9062 12.0312 26.3379 12.0312C24.9023 12.0312 23.8066 13.291 23.8066 14.6797C23.8066 15.8223 24.5215 16.5664 25.6641 16.5664C26.209 16.5664 26.8652 16.2793 27.2168 15.8691C27.1992 15.957 27.1582 16.1445 27.1582 16.2324C27.1582 16.3672 27.2168 16.4668 27.3457 16.4668H28.3594C28.5176 16.4668 28.6523 16.2969 28.6816 16.1328L29.2793 12.3652C29.2969 12.2539 29.209 12.1367 29.0918 12.1367ZM31.875 10.1855C31.875 10.0684 31.7871 9.98047 31.6875 9.98047H30.6035C30.5156 9.98047 30.4277 10.0508 30.416 10.1387L29.4668 16.2324L29.4492 16.2617C29.4492 16.3672 29.5371 16.4668 29.6543 16.4668H30.6211C30.7676 16.4668 30.9141 16.2969 30.9258 16.1328L31.875 10.2031V10.1855ZM26.6016 13.2207C25.8867 13.2207 25.3301 13.7891 25.3301 14.5098C25.3301 15.0781 25.7402 15.3887 26.2793 15.3887C26.9824 15.3887 27.5508 14.8496 27.5508 14.1289C27.5566 13.5547 27.1465 13.2207 26.6016 13.2207Z" fill="#3B82F6"/>
</svg>
