<svg width="34" height="28" viewBox="0 0 34 28" fill="none" xmlns="http://www.w3.org/2000/svg">
<path d="M27.5449 12.5527C27.5449 12.5527 27.9902 14.7324 28.0898 15.1895H26.1328C26.3262 14.668 27.0703 12.6406 27.0703 12.6406C27.0586 12.6582 27.2637 12.1074 27.3809 11.7676L27.5449 12.5527ZM33.75 3.6875V24.3125C33.75 25.8652 32.4902 27.125 30.9375 27.125H2.8125C1.25977 27.125 0 25.8652 0 24.3125V3.6875C0 2.13477 1.25977 0.875 2.8125 0.875H30.9375C32.4902 0.875 33.75 2.13477 33.75 3.6875ZM8.93555 18.4062L12.6387 9.3125H10.1484L7.8457 15.5234L7.59375 14.2637L6.77344 10.0801C6.63867 9.5 6.22266 9.33594 5.70703 9.3125H1.91602L1.875 9.49414C2.80078 9.72852 3.62695 10.0684 4.34766 10.4961L6.44531 18.4062H8.93555ZM14.4668 18.418L15.9434 9.3125H13.5879L12.1172 18.418H14.4668ZM22.6641 15.4414C22.6758 14.4043 22.043 13.6133 20.6895 12.9629C19.8633 12.5469 19.3594 12.2656 19.3594 11.8379C19.3711 11.4512 19.7871 11.0527 20.7129 11.0527C21.4805 11.0352 22.043 11.2168 22.4648 11.3984L22.6758 11.498L22.998 9.5293C22.5352 9.34766 21.7969 9.14258 20.8887 9.14258C18.5625 9.14258 16.9277 10.3848 16.916 12.1543C16.8984 13.4609 18.0879 14.1875 18.9785 14.627C19.8867 15.0723 20.1973 15.3652 20.1973 15.7578C20.1855 16.3672 19.459 16.6484 18.7852 16.6484C17.8477 16.6484 17.3438 16.502 16.5762 16.1621L16.2656 16.0156L15.9375 18.0605C16.4883 18.3125 17.5078 18.5352 18.5625 18.5469C21.0352 18.5527 22.6465 17.3281 22.6641 15.4414ZM30.9375 18.418L29.0391 9.3125H27.2168C26.6543 9.3125 26.2266 9.47656 25.9863 10.0684L22.4883 18.418H24.9609C24.9609 18.418 25.3652 17.293 25.4531 17.0527H28.4766C28.5469 17.375 28.7578 18.418 28.7578 18.418H30.9375Z" fill="#2563EB"/>
</svg>
