<svg width="35" height="28" viewBox="0 0 35 28" fill="none" xmlns="http://www.w3.org/2000/svg">
<path d="M29.2098 23.041C29.2098 23.4395 28.9403 23.7266 28.5536 23.7266C28.1552 23.7266 27.8973 23.4219 27.8973 23.041C27.8973 22.6602 28.1552 22.3555 28.5536 22.3555C28.9403 22.3555 29.2098 22.6602 29.2098 23.041ZM10.9989 22.3555C10.5829 22.3555 10.3427 22.6602 10.3427 23.041C10.3427 23.4219 10.5829 23.7266 10.9989 23.7266C11.3798 23.7266 11.6376 23.4395 11.6376 23.041C11.6317 22.6602 11.3798 22.3555 10.9989 22.3555ZM17.8837 22.3379C17.5673 22.3379 17.3739 22.543 17.327 22.8477H18.4462C18.3934 22.5137 18.1884 22.3379 17.8837 22.3379ZM24.2001 22.3555C23.8016 22.3555 23.5614 22.6602 23.5614 23.041C23.5614 23.4219 23.8016 23.7266 24.2001 23.7266C24.5985 23.7266 24.8563 23.4395 24.8563 23.041C24.8563 22.6602 24.5985 22.3555 24.2001 22.3555ZM30.4052 23.8848C30.4052 23.9023 30.4227 23.9141 30.4227 23.9492C30.4227 23.9668 30.4052 23.9785 30.4052 24.0137C30.3876 24.0312 30.3876 24.043 30.3759 24.0605C30.3583 24.0781 30.3466 24.0898 30.3114 24.0898C30.2938 24.1074 30.2821 24.1074 30.2469 24.1074C30.2294 24.1074 30.2177 24.1074 30.1825 24.0898C30.1649 24.0898 30.1532 24.0723 30.1356 24.0605C30.118 24.043 30.1063 24.0312 30.1063 24.0137C30.0887 23.9844 30.0887 23.9668 30.0887 23.9492C30.0887 23.9199 30.0887 23.9023 30.1063 23.8848C30.1063 23.8555 30.1239 23.8379 30.1356 23.8203C30.1532 23.8027 30.1649 23.8027 30.1825 23.791C30.2118 23.7734 30.2294 23.7734 30.2469 23.7734C30.2762 23.7734 30.2938 23.7734 30.3114 23.791C30.3407 23.8086 30.3583 23.8086 30.3759 23.8203C30.3934 23.832 30.3876 23.8555 30.4052 23.8848ZM30.2762 23.9668C30.3055 23.9668 30.3055 23.9492 30.3231 23.9492C30.3407 23.9316 30.3407 23.9199 30.3407 23.9023C30.3407 23.8848 30.3407 23.873 30.3231 23.8555C30.3055 23.8555 30.2938 23.8379 30.2587 23.8379H30.1649V24.043H30.2118V23.9609H30.2294L30.2938 24.043H30.3407L30.2762 23.9668ZM34.6649 3.74609V24.3711C34.6649 25.9238 33.4052 27.1836 31.8524 27.1836H3.72742C2.17468 27.1836 0.914917 25.9238 0.914917 24.3711V3.74609C0.914917 2.19336 2.17468 0.933594 3.72742 0.933594H31.8524C33.4052 0.933594 34.6649 2.19336 34.6649 3.74609ZM4.66492 11.9258C4.66492 16.4082 8.30359 20.041 12.7802 20.041C14.3739 20.041 15.9384 19.5605 17.2626 18.6875C12.9911 15.2129 13.0204 8.65625 17.2626 5.18164C15.9384 4.30273 14.3739 3.82812 12.7802 3.82812C8.30359 3.82227 4.66492 7.46094 4.66492 11.9258ZM17.7899 18.3008C21.9208 15.0781 21.9032 8.79688 17.7899 5.55664C13.6766 8.79688 13.6591 15.084 17.7899 18.3008ZM9.45203 22.7715C9.45203 22.2617 9.11804 21.9277 8.5907 21.9102C8.32117 21.9102 8.03406 21.9922 7.8407 22.291C7.70007 22.0508 7.45984 21.9102 7.12585 21.9102C6.9032 21.9102 6.68054 21.9922 6.50476 22.2266V21.9688H6.02429V24.1191H6.50476C6.50476 23.0117 6.35828 22.3496 7.0321 22.3496C7.62976 22.3496 7.51257 22.9473 7.51257 24.1191H7.97546C7.97546 23.0469 7.82898 22.3496 8.50281 22.3496C9.10046 22.3496 8.98328 22.9355 8.98328 24.1191H9.46375V22.7715H9.45203ZM12.0829 21.9688H11.62V22.2266C11.4618 22.0332 11.2391 21.9102 10.9344 21.9102C10.3309 21.9102 9.86804 22.3906 9.86804 23.041C9.86804 23.6973 10.3309 24.1719 10.9344 24.1719C11.2391 24.1719 11.4618 24.0605 11.62 23.8555V24.125H12.0829V21.9688ZM14.4559 23.4688C14.4559 22.5898 13.1141 22.9883 13.1141 22.5781C13.1141 22.2441 13.8114 22.2969 14.1981 22.5137L14.3915 22.1328C13.8407 21.7754 12.6219 21.7812 12.6219 22.6133C12.6219 23.4512 13.9637 23.0996 13.9637 23.4922C13.9637 23.8613 13.1727 23.832 12.7509 23.5391L12.5458 23.9082C13.202 24.3535 14.4559 24.2598 14.4559 23.4688ZM16.5302 24.0137L16.4012 23.6152C16.1786 23.7383 15.6864 23.873 15.6864 23.375V22.4023H16.454V21.9688H15.6864V21.3125H15.2059V21.9688H14.7606V22.3965H15.2059V23.375C15.2059 24.4062 16.2196 24.2188 16.5302 24.0137ZM17.3094 23.2285H18.9208C18.9208 22.2793 18.4872 21.9043 17.9012 21.9043C17.2802 21.9043 16.8348 22.3672 16.8348 23.0352C16.8348 24.2363 18.1591 24.4355 18.8153 23.8672L18.5927 23.5156C18.1356 23.8906 17.4442 23.8555 17.3094 23.2285ZM20.7723 21.9688C20.5028 21.8516 20.0927 21.8633 19.8817 22.2266V21.9688H19.4012V24.1191H19.8817V22.9062C19.8817 22.2266 20.4384 22.3145 20.6317 22.4141L20.7723 21.9688ZM21.3934 23.041C21.3934 22.373 22.0731 22.1562 22.6063 22.5488L22.829 22.168C22.1493 21.6348 20.913 21.9277 20.913 23.0469C20.913 24.207 22.2255 24.4414 22.829 23.9258L22.6063 23.5449C22.0673 23.9258 21.3934 23.6973 21.3934 23.041ZM25.3016 21.9688H24.8212V22.2266C24.3348 21.582 23.0692 21.9453 23.0692 23.041C23.0692 24.166 24.3817 24.4883 24.8212 23.8555V24.125H25.3016V21.9688ZM27.2762 21.9688C27.1356 21.8984 26.6317 21.7988 26.3856 22.2266V21.9688H25.9227V24.1191H26.3856V22.9062C26.3856 22.2617 26.913 22.3027 27.1356 22.4141L27.2762 21.9688ZM29.6376 21.0957H29.1747V22.2266C28.6942 21.5879 27.4227 21.9277 27.4227 23.041C27.4227 24.1777 28.7411 24.4824 29.1747 23.8555V24.125H29.6376V21.0957ZM30.0829 16.6953V16.9648H30.1298V16.6953H30.2411V16.6484H29.9716V16.6953H30.0829ZM30.4696 23.9492C30.4696 23.9199 30.4696 23.8848 30.452 23.8555C30.4344 23.8379 30.4227 23.8086 30.4052 23.791C30.3876 23.7734 30.3583 23.7617 30.3407 23.7441C30.3114 23.7441 30.2762 23.7266 30.2469 23.7266C30.2294 23.7266 30.2001 23.7441 30.1649 23.7441C30.1356 23.7617 30.118 23.7734 30.1005 23.791C30.0712 23.8086 30.0536 23.8379 30.0536 23.8555C30.036 23.8848 30.036 23.9199 30.036 23.9492C30.036 23.9668 30.036 23.9961 30.0536 24.0312C30.0536 24.0488 30.0712 24.0781 30.1005 24.0957C30.118 24.1133 30.1298 24.125 30.1649 24.1426C30.1942 24.1602 30.2294 24.1602 30.2469 24.1602C30.2762 24.1602 30.3114 24.1602 30.3407 24.1426C30.3583 24.125 30.3876 24.1133 30.4052 24.0957C30.4227 24.0781 30.4344 24.0488 30.452 24.0312C30.4696 23.9961 30.4696 23.9668 30.4696 23.9492ZM30.6571 16.6426H30.5751L30.4813 16.8477L30.3876 16.6426H30.3055V16.959H30.3524V16.7188L30.4462 16.9238H30.5106L30.5927 16.7188V16.959H30.6571V16.6426ZM30.9149 11.9258C30.9149 7.46094 27.2762 3.82227 22.7997 3.82227C21.2059 3.82227 19.6415 4.30273 18.3173 5.17578C22.5419 8.65039 22.6063 15.2246 18.3173 18.6816C19.6415 19.5605 21.2177 20.0352 22.7997 20.0352C27.2762 20.041 30.9149 16.4082 30.9149 11.9258Z" fill="#9CA3AF"/>
</svg>
