<svg width="35" height="28" viewBox="0 0 35 28" fill="none" xmlns="http://www.w3.org/2000/svg">
<path d="M11.5809 14.1289C11.5809 14.8438 11.0126 15.3887 10.2919 15.3887C9.75281 15.3887 9.35437 15.084 9.35437 14.5098C9.35437 13.7949 9.91101 13.2207 10.6259 13.2207C11.1708 13.2207 11.5809 13.5547 11.5809 14.1289ZM5.38171 11.2871H5.10632C5.01843 11.2871 4.93054 11.3457 4.91882 11.4453L4.66687 13.0098L5.14734 12.9922C5.79187 12.9922 6.28992 12.9043 6.4071 12.1602C6.54187 11.375 6.04382 11.2871 5.38171 11.2871ZM22.0223 11.2871H21.7587C21.6532 11.2871 21.5829 11.3457 21.5712 11.4453L21.3251 13.0098L21.7938 12.9922C22.5555 12.9922 23.0829 12.8164 23.0829 11.9375C23.077 11.3164 22.5204 11.2871 22.0223 11.2871ZM34.4149 3.6875V24.3125C34.4149 25.8652 33.1552 27.125 31.6024 27.125H3.47742C1.92468 27.125 0.664917 25.8652 0.664917 24.3125V3.6875C0.664917 2.13477 1.92468 0.875 3.47742 0.875H31.6024C33.1552 0.875 34.4149 2.13477 34.4149 3.6875ZM8.1825 11.6211C8.1825 10.3906 7.23328 9.98047 6.14929 9.98047H3.80554C3.65906 9.98047 3.51257 10.0977 3.50085 10.2559L2.53992 16.2383C2.52234 16.3555 2.61023 16.4727 2.72742 16.4727H3.8407C3.9989 16.4727 4.14539 16.3027 4.16296 16.1387L4.42664 14.5801C4.48523 14.1582 5.20007 14.3047 5.48132 14.3047C7.1571 14.3047 8.1825 13.3086 8.1825 11.6211ZM13.1161 12.1367H12.0028C11.7802 12.1367 11.7684 12.459 11.7567 12.6172C11.4169 12.1191 10.9247 12.0312 10.368 12.0312C8.9325 12.0312 7.83679 13.291 7.83679 14.6797C7.83679 15.8223 8.55164 16.5664 9.69421 16.5664C10.2216 16.5664 10.8778 16.2793 11.2469 15.8691C11.2177 15.957 11.1884 16.1445 11.1884 16.2324C11.1884 16.3672 11.2469 16.4668 11.3759 16.4668H12.3837C12.5419 16.4668 12.6766 16.2969 12.7059 16.1328L13.3036 12.3652C13.3212 12.2539 13.2333 12.1367 13.1161 12.1367ZM15.4891 17.873L19.2216 12.4473C19.2509 12.418 19.2509 12.3887 19.2509 12.3477C19.2509 12.248 19.163 12.1426 19.0634 12.1426H17.9384C17.8387 12.1426 17.7333 12.2012 17.6747 12.2891L16.1219 14.5742L15.4774 12.377C15.4305 12.248 15.3016 12.1426 15.1552 12.1426H14.0594C13.9598 12.1426 13.8719 12.248 13.8719 12.3477C13.8719 12.418 15.0145 15.6758 15.1141 15.9863C14.9559 16.209 13.913 17.6621 13.913 17.8379C13.913 17.9434 14.0009 18.0254 14.1005 18.0254H15.2255C15.3309 18.0195 15.4305 17.9609 15.4891 17.873ZM24.8231 11.6211C24.8231 10.3906 23.8739 9.98047 22.7899 9.98047H20.4637C20.3055 9.98047 20.1591 10.0977 20.1415 10.2559L19.1923 16.2324C19.1805 16.3496 19.2684 16.4668 19.3798 16.4668H20.5809C20.6981 16.4668 20.786 16.3789 20.8153 16.2793L21.079 14.5801C21.1376 14.1582 21.8524 14.3047 22.1337 14.3047C23.7977 14.3047 24.8231 13.3086 24.8231 11.6211ZM29.7567 12.1367H28.6434C28.4208 12.1367 28.4091 12.459 28.3915 12.6172C28.0692 12.1191 27.5712 12.0312 27.0028 12.0312C25.5673 12.0312 24.4716 13.291 24.4716 14.6797C24.4716 15.8223 25.1864 16.5664 26.329 16.5664C26.8739 16.5664 27.5302 16.2793 27.8817 15.8691C27.8641 15.957 27.8231 16.1445 27.8231 16.2324C27.8231 16.3672 27.8817 16.4668 28.0106 16.4668H29.0243C29.1825 16.4668 29.3173 16.2969 29.3466 16.1328L29.9442 12.3652C29.9618 12.2539 29.8739 12.1367 29.7567 12.1367ZM32.5399 10.1855C32.5399 10.0684 32.452 9.98047 32.3524 9.98047H31.2684C31.1805 9.98047 31.0926 10.0508 31.0809 10.1387L30.1317 16.2324L30.1141 16.2617C30.1141 16.3672 30.202 16.4668 30.3192 16.4668H31.286C31.4325 16.4668 31.579 16.2969 31.5907 16.1328L32.5399 10.2031V10.1855ZM27.2665 13.2207C26.5516 13.2207 25.995 13.7891 25.995 14.5098C25.995 15.0781 26.4052 15.3887 26.9442 15.3887C27.6473 15.3887 28.2157 14.8496 28.2157 14.1289C28.2216 13.5547 27.8114 13.2207 27.2665 13.2207Z" fill="#9CA3AF"/>
</svg>
