<svg width="34" height="28" viewBox="0 0 34 28" fill="none" xmlns="http://www.w3.org/2000/svg">
<path d="M27.7098 12.5527C27.7098 12.5527 28.1552 14.7324 28.2548 15.1895H26.2977C26.4911 14.668 27.2352 12.6406 27.2352 12.6406C27.2235 12.6582 27.4286 12.1074 27.5458 11.7676L27.7098 12.5527ZM33.9149 3.6875V24.3125C33.9149 25.8652 32.6552 27.125 31.1024 27.125H2.97742C1.42468 27.125 0.164917 25.8652 0.164917 24.3125V3.6875C0.164917 2.13477 1.42468 0.875 2.97742 0.875H31.1024C32.6552 0.875 33.9149 2.13477 33.9149 3.6875ZM9.10046 18.4062L12.8036 9.3125H10.3134L8.01062 15.5234L7.75867 14.2637L6.93835 10.0801C6.80359 9.5 6.38757 9.33594 5.87195 9.3125H2.08093L2.03992 9.49414C2.9657 9.72852 3.79187 10.0684 4.51257 10.4961L6.61023 18.4062H9.10046ZM14.6317 18.418L16.1083 9.3125H13.7528L12.2821 18.418H14.6317ZM22.829 15.4414C22.8407 14.4043 22.2079 13.6133 20.8544 12.9629C20.0282 12.5469 19.5243 12.2656 19.5243 11.8379C19.536 11.4512 19.952 11.0527 20.8778 11.0527C21.6454 11.0352 22.2079 11.2168 22.6298 11.3984L22.8407 11.498L23.163 9.5293C22.7001 9.34766 21.9618 9.14258 21.0536 9.14258C18.7274 9.14258 17.0927 10.3848 17.0809 12.1543C17.0634 13.4609 18.2528 14.1875 19.1434 14.627C20.0516 15.0723 20.3622 15.3652 20.3622 15.7578C20.3505 16.3672 19.6239 16.6484 18.9501 16.6484C18.0126 16.6484 17.5087 16.502 16.7411 16.1621L16.4305 16.0156L16.1024 18.0605C16.6532 18.3125 17.6727 18.5352 18.7274 18.5469C21.2001 18.5527 22.8114 17.3281 22.829 15.4414ZM31.1024 18.418L29.204 9.3125H27.3817C26.8192 9.3125 26.3915 9.47656 26.1512 10.0684L22.6532 18.418H25.1259C25.1259 18.418 25.5302 17.293 25.618 17.0527H28.6415C28.7118 17.375 28.9227 18.418 28.9227 18.418H31.1024Z" fill="#9CA3AF"/>
</svg>
