<svg width="13" height="13" viewBox="0 0 13 13" fill="none" xmlns="http://www.w3.org/2000/svg">
<path d="M7.69531 0.69375C7.5668 0.351953 7.23867 0.125 6.875 0.125C6.51133 0.125 6.1832 0.351953 6.05469 0.69375L2.33047 10.625H1.625C1.14102 10.625 0.75 11.016 0.75 11.5C0.75 11.984 1.14102 12.375 1.625 12.375H4.25C4.73398 12.375 5.125 11.984 5.125 11.5C5.125 11.016 4.73398 10.625 4.25 10.625H4.20078L4.69297 9.3125H9.05703L9.54922 10.625H9.5C9.01602 10.625 8.625 11.016 8.625 11.5C8.625 11.984 9.01602 12.375 9.5 12.375H12.125C12.609 12.375 13 11.984 13 11.5C13 11.016 12.609 10.625 12.125 10.625H11.4195L7.69531 0.69375ZM8.40078 7.5625H5.34922L6.875 3.49102L8.40078 7.5625Z" fill="#A3A3A3"/>
</svg>
