<svg width="13" height="13" viewBox="0 0 13 13" fill="none" xmlns="http://www.w3.org/2000/svg">
<path d="M6.94531 0.69375C6.8168 0.351953 6.48867 0.125 6.125 0.125C5.76133 0.125 5.4332 0.351953 5.30469 0.69375L1.58047 10.625H0.875C0.391016 10.625 0 11.016 0 11.5C0 11.984 0.391016 12.375 0.875 12.375H3.5C3.98398 12.375 4.375 11.984 4.375 11.5C4.375 11.016 3.98398 10.625 3.5 10.625H3.45078L3.94297 9.3125H8.30703L8.79922 10.625H8.75C8.26602 10.625 7.875 11.016 7.875 11.5C7.875 11.984 8.26602 12.375 8.75 12.375H11.375C11.859 12.375 12.25 11.984 12.25 11.5C12.25 11.016 11.859 10.625 11.375 10.625H10.6695L6.94531 0.69375ZM7.65078 7.5625H4.59922L6.125 3.49102L7.65078 7.5625Z" fill="#A3A3A3"/>
</svg>
