<svg width="34" height="28" viewBox="0 0 34 28" fill="none" xmlns="http://www.w3.org/2000/svg">
<path d="M3.0625 27.125C1.50918 27.125 0.25 25.8652 0.25 24.3125V3.6875C0.25 2.13418 1.50918 0.875 3.0625 0.875H31.1875C32.7402 0.875 34 2.13418 34 3.6875V3.82988H29.5762L28.5801 6.61719L27.5898 3.82988H21.8945V7.53125L20.248 3.82988H15.6426L10.8555 14.6504H14.7109V24.248H26.6465L28.5156 22.1914L30.3848 24.248H34V24.3125C34 25.8652 32.7402 27.125 31.1875 27.125H3.0625ZM28.5273 20.3281L26.0547 23.041H23.1309L27.0859 18.8398L23.1309 14.5918H26.1426L28.5742 17.3281L31.0352 14.5918H34L30.0156 18.8164L34 23.041H30.9883L28.5273 20.3281ZM34 16.3965V21.2773L31.6973 18.8223L34 16.3965ZM18.2734 21.0957H23.1367V23.041H15.9883V14.6504H23.1367V16.5898H18.2734V17.9023H23.0137V19.7949H18.2734V21.1016V21.0957ZM31.7324 7.53711L29.5703 13.4316H27.5547L25.3984 7.55469V13.4316H23.1309V5.03516H26.7168L28.5859 10.2676L30.4727 5.03516H34V13.4316H31.7324V7.53711ZM19.8496 11.75H15.9883L15.291 13.4316H12.7715L16.4277 5.03516H19.4277L23.1367 13.4316H20.5527L19.8496 11.75ZM17.916 7.11523L16.7734 9.86328H19.0527L17.916 7.11523Z" fill="#3B82F6"/>
</svg>
