<svg width="16" height="18" viewBox="0 0 16 18" fill="none" xmlns="http://www.w3.org/2000/svg">
<path d="M5.875 3.9375C5.875 2.69648 6.88398 1.6875 8.125 1.6875C9.36602 1.6875 10.375 2.69648 10.375 3.9375V5.625H5.875V3.9375ZM4.1875 5.625H1.9375C1.00586 5.625 0.25 6.38086 0.25 7.3125V14.625C0.25 16.4883 1.76172 18 3.625 18H12.625C14.4883 18 16 16.4883 16 14.625V7.3125C16 6.38086 15.2441 5.625 14.3125 5.625H12.0625V3.9375C12.0625 1.76133 10.3012 0 8.125 0C5.94883 0 4.1875 1.76133 4.1875 3.9375V5.625ZM5.03125 7.3125C5.25503 7.3125 5.46964 7.40139 5.62787 7.55963C5.78611 7.71786 5.875 7.93247 5.875 8.15625C5.875 8.38003 5.78611 8.59464 5.62787 8.75287C5.46964 8.91111 5.25503 9 5.03125 9C4.80747 9 4.59286 8.91111 4.43463 8.75287C4.27639 8.59464 4.1875 8.38003 4.1875 8.15625C4.1875 7.93247 4.27639 7.71786 4.43463 7.55963C4.59286 7.40139 4.80747 7.3125 5.03125 7.3125ZM10.375 8.15625C10.375 7.93247 10.4639 7.71786 10.6221 7.55963C10.7804 7.40139 10.995 7.3125 11.2188 7.3125C11.4425 7.3125 11.6571 7.40139 11.8154 7.55963C11.9736 7.71786 12.0625 7.93247 12.0625 8.15625C12.0625 8.38003 11.9736 8.59464 11.8154 8.75287C11.6571 8.91111 11.4425 9 11.2188 9C10.995 9 10.7804 8.91111 10.6221 8.75287C10.4639 8.59464 10.375 8.38003 10.375 8.15625Z" fill="#171717"/>
</svg>
