<svg width="13" height="15" viewBox="0 0 13 15" fill="none" xmlns="http://www.w3.org/2000/svg">
<path d="M4.57983 3.5625C4.57983 2.59727 5.3646 1.8125 6.32983 1.8125C7.29507 1.8125 8.07983 2.59727 8.07983 3.5625V4.875H4.57983V3.5625ZM3.26733 4.875H1.51733C0.792725 4.875 0.204834 5.46289 0.204834 6.1875V11.875C0.204834 13.3242 1.38062 14.5 2.82983 14.5H9.82983C11.2791 14.5 12.4548 13.3242 12.4548 11.875V6.1875C12.4548 5.46289 11.8669 4.875 11.1423 4.875H9.39233V3.5625C9.39233 1.86992 8.02241 0.5 6.32983 0.5C4.63726 0.5 3.26733 1.86992 3.26733 3.5625V4.875ZM3.92358 6.1875C4.09763 6.1875 4.26455 6.25664 4.38762 6.37971C4.51069 6.50278 4.57983 6.6697 4.57983 6.84375C4.57983 7.0178 4.51069 7.18472 4.38762 7.30779C4.26455 7.43086 4.09763 7.5 3.92358 7.5C3.74954 7.5 3.58262 7.43086 3.45955 7.30779C3.33647 7.18472 3.26733 7.0178 3.26733 6.84375C3.26733 6.6697 3.33647 6.50278 3.45955 6.37971C3.58262 6.25664 3.74954 6.1875 3.92358 6.1875ZM8.07983 6.84375C8.07983 6.6697 8.14897 6.50278 8.27205 6.37971C8.39512 6.25664 8.56204 6.1875 8.73608 6.1875C8.91013 6.1875 9.07705 6.25664 9.20012 6.37971C9.32319 6.50278 9.39233 6.6697 9.39233 6.84375C9.39233 7.0178 9.32319 7.18472 9.20012 7.30779C9.07705 7.43086 8.91013 7.5 8.73608 7.5C8.56204 7.5 8.39512 7.43086 8.27205 7.30779C8.14897 7.18472 8.07983 7.0178 8.07983 6.84375Z" fill="white"/>
</svg>
