<svg width="16" height="18" viewBox="0 0 16 18" fill="none" xmlns="http://www.w3.org/2000/svg">
<path d="M4.75312 0.622266C4.94297 0.239063 5.3332 0 5.75859 0H9.99141C10.4168 0 10.807 0.239063 10.9969 0.622266L11.25 1.125H14.625C15.2473 1.125 15.75 1.62773 15.75 2.25C15.75 2.87227 15.2473 3.375 14.625 3.375H1.125C0.502734 3.375 0 2.87227 0 2.25C0 1.62773 0.502734 1.125 1.125 1.125H4.5L4.75312 0.622266ZM1.125 4.5H14.625V15.75C14.625 16.991 13.616 18 12.375 18H3.375C2.13398 18 1.125 16.991 1.125 15.75V4.5ZM4.5 6.75C4.19063 6.75 3.9375 7.00313 3.9375 7.3125V15.1875C3.9375 15.4969 4.19063 15.75 4.5 15.75C4.80937 15.75 5.0625 15.4969 5.0625 15.1875V7.3125C5.0625 7.00313 4.80937 6.75 4.5 6.75ZM7.875 6.75C7.56563 6.75 7.3125 7.00313 7.3125 7.3125V15.1875C7.3125 15.4969 7.56563 15.75 7.875 15.75C8.18437 15.75 8.4375 15.4969 8.4375 15.1875V7.3125C8.4375 7.00313 8.18437 6.75 7.875 6.75ZM11.25 6.75C10.9406 6.75 10.6875 7.00313 10.6875 7.3125V15.1875C10.6875 15.4969 10.9406 15.75 11.25 15.75C11.5594 15.75 11.8125 15.4969 11.8125 15.1875V7.3125C11.8125 7.00313 11.5594 6.75 11.25 6.75Z" fill="#EF4444"/>
</svg>
