<svg width="17" height="18" viewBox="0 0 17 18" fill="none" xmlns="http://www.w3.org/2000/svg">
<path d="M5.32808 0.622266C5.51792 0.239063 5.90815 0 6.33355 0H10.5664C10.9917 0 11.382 0.239063 11.5718 0.622266L11.825 1.125H15.2C15.8222 1.125 16.325 1.62773 16.325 2.25C16.325 2.87227 15.8222 3.375 15.2 3.375H1.69995C1.07769 3.375 0.574951 2.87227 0.574951 2.25C0.574951 1.62773 1.07769 1.125 1.69995 1.125H5.07495L5.32808 0.622266ZM1.69995 4.5H15.2V15.75C15.2 16.991 14.191 18 12.95 18H3.94995C2.70894 18 1.69995 16.991 1.69995 15.75V4.5ZM5.07495 6.75C4.76558 6.75 4.51245 7.00313 4.51245 7.3125V15.1875C4.51245 15.4969 4.76558 15.75 5.07495 15.75C5.38433 15.75 5.63745 15.4969 5.63745 15.1875V7.3125C5.63745 7.00313 5.38433 6.75 5.07495 6.75ZM8.44995 6.75C8.14058 6.75 7.88745 7.00313 7.88745 7.3125V15.1875C7.88745 15.4969 8.14058 15.75 8.44995 15.75C8.75933 15.75 9.01245 15.4969 9.01245 15.1875V7.3125C9.01245 7.00313 8.75933 6.75 8.44995 6.75ZM11.825 6.75C11.5156 6.75 11.2625 7.00313 11.2625 7.3125V15.1875C11.2625 15.4969 11.5156 15.75 11.825 15.75C12.1343 15.75 12.3875 15.4969 12.3875 15.1875V7.3125C12.3875 7.00313 12.1343 6.75 11.825 6.75Z" fill="#9CA3AF"/>
</svg>
