<svg width="18" height="17" viewBox="0 0 18 17" fill="none" xmlns="http://www.w3.org/2000/svg">
<path d="M0 1.3501C0 0.934473 0.334375 0.600098 0.75 0.600098H2.17188C2.85938 0.600098 3.46875 1.0001 3.75313 1.6001H16.5969C17.4188 1.6001 18.0188 2.38135 17.8031 3.1751L16.5219 7.93447C16.2563 8.91572 15.3656 9.6001 14.35 9.6001H5.33438L5.50313 10.4907C5.57188 10.8438 5.88125 11.1001 6.24063 11.1001H15.25C15.6656 11.1001 16 11.4345 16 11.8501C16 12.2657 15.6656 12.6001 15.25 12.6001H6.24063C5.15938 12.6001 4.23125 11.8313 4.03125 10.772L2.41875 2.30322C2.39688 2.18447 2.29375 2.1001 2.17188 2.1001H0.75C0.334375 2.1001 0 1.76572 0 1.3501ZM4 15.1001C4 14.9031 4.0388 14.7081 4.11418 14.5261C4.18956 14.3441 4.30005 14.1787 4.43934 14.0394C4.57863 13.9001 4.74399 13.7897 4.92598 13.7143C5.10796 13.6389 5.30302 13.6001 5.5 13.6001C5.69698 13.6001 5.89204 13.6389 6.07403 13.7143C6.25601 13.7897 6.42137 13.9001 6.56066 14.0394C6.69995 14.1787 6.81044 14.3441 6.88582 14.5261C6.9612 14.7081 7 14.9031 7 15.1001C7 15.2971 6.9612 15.4921 6.88582 15.6741C6.81044 15.8561 6.69995 16.0215 6.56066 16.1608C6.42137 16.3 6.25601 16.4105 6.07403 16.4859C5.89204 16.5613 5.69698 16.6001 5.5 16.6001C5.30302 16.6001 5.10796 16.5613 4.92598 16.4859C4.74399 16.4105 4.57863 16.3 4.43934 16.1608C4.30005 16.0215 4.18956 15.8561 4.11418 15.6741C4.0388 15.4921 4 15.2971 4 15.1001ZM14.5 13.6001C14.8978 13.6001 15.2794 13.7581 15.5607 14.0394C15.842 14.3207 16 14.7023 16 15.1001C16 15.4979 15.842 15.8795 15.5607 16.1608C15.2794 16.4421 14.8978 16.6001 14.5 16.6001C14.1022 16.6001 13.7206 16.4421 13.4393 16.1608C13.158 15.8795 13 15.4979 13 15.1001C13 14.7023 13.158 14.3207 13.4393 14.0394C13.7206 13.7581 14.1022 13.6001 14.5 13.6001ZM7.875 5.6001C7.875 5.94385 8.15625 6.2251 8.5 6.2251H9.875V7.6001C9.875 7.94385 10.1563 8.2251 10.5 8.2251C10.8438 8.2251 11.125 7.94385 11.125 7.6001V6.2251H12.5C12.8438 6.2251 13.125 5.94385 13.125 5.6001C13.125 5.25635 12.8438 4.9751 12.5 4.9751H11.125V3.6001C11.125 3.25635 10.8438 2.9751 10.5 2.9751C10.1563 2.9751 9.875 3.25635 9.875 3.6001V4.9751H8.5C8.15625 4.9751 7.875 5.25635 7.875 5.6001Z" fill="#404040"/>
</svg>
