<svg width="21" height="18" viewBox="0 0 21 18" fill="none" xmlns="http://www.w3.org/2000/svg">
<path d="M0.875 0.84375C0.875 0.376172 1.25117 0 1.71875 0H3.31836C4.0918 0 4.77734 0.45 5.09727 1.125H19.5465C20.4711 1.125 21.1461 2.00391 20.9035 2.89688L19.4621 8.25117C19.1633 9.35508 18.1613 10.125 17.0188 10.125H6.87617L7.06602 11.127C7.14336 11.5242 7.49141 11.8125 7.8957 11.8125H18.0312C18.4988 11.8125 18.875 12.1887 18.875 12.6562C18.875 13.1238 18.4988 13.5 18.0312 13.5H7.8957C6.6793 13.5 5.63516 12.6352 5.41016 11.4434L3.59609 1.91602C3.57148 1.78242 3.45547 1.6875 3.31836 1.6875H1.71875C1.25117 1.6875 0.875 1.31133 0.875 0.84375ZM5.375 16.3125C5.375 16.0909 5.41865 15.8715 5.50345 15.6667C5.58826 15.462 5.71256 15.276 5.86926 15.1193C6.02596 14.9626 6.21198 14.8383 6.41672 14.7535C6.62146 14.6686 6.84089 14.625 7.0625 14.625C7.28411 14.625 7.50354 14.6686 7.70828 14.7535C7.91302 14.8383 8.09904 14.9626 8.25574 15.1193C8.41244 15.276 8.53674 15.462 8.62155 15.6667C8.70635 15.8715 8.75 16.0909 8.75 16.3125C8.75 16.5341 8.70635 16.7535 8.62155 16.9583C8.53674 17.163 8.41244 17.349 8.25574 17.5057C8.09904 17.6624 7.91302 17.7867 7.70828 17.8715C7.50354 17.9564 7.28411 18 7.0625 18C6.84089 18 6.62146 17.9564 6.41672 17.8715C6.21198 17.7867 6.02596 17.6624 5.86926 17.5057C5.71256 17.349 5.58826 17.163 5.50345 16.9583C5.41865 16.7535 5.375 16.5341 5.375 16.3125ZM17.1875 14.625C17.6351 14.625 18.0643 14.8028 18.3807 15.1193C18.6972 15.4357 18.875 15.8649 18.875 16.3125C18.875 16.7601 18.6972 17.1893 18.3807 17.5057C18.0643 17.8222 17.6351 18 17.1875 18C16.7399 18 16.3107 17.8222 15.9943 17.5057C15.6778 17.1893 15.5 16.7601 15.5 16.3125C15.5 15.8649 15.6778 15.4357 15.9943 15.1193C16.3107 14.8028 16.7399 14.625 17.1875 14.625ZM9.73438 5.625C9.73438 6.01172 10.0508 6.32812 10.4375 6.32812H11.9844V7.875C11.9844 8.26172 12.3008 8.57812 12.6875 8.57812C13.0742 8.57812 13.3906 8.26172 13.3906 7.875V6.32812H14.9375C15.3242 6.32812 15.6406 6.01172 15.6406 5.625C15.6406 5.23828 15.3242 4.92188 14.9375 4.92188H13.3906V3.375C13.3906 2.98828 13.0742 2.67188 12.6875 2.67188C12.3008 2.67188 11.9844 2.98828 11.9844 3.375V4.92188H10.4375C10.0508 4.92188 9.73438 5.23828 9.73438 5.625Z" fill="white"/>
</svg>
