<svg width="18" height="14" viewBox="0 0 18 14" fill="none" xmlns="http://www.w3.org/2000/svg">
<path d="M16.3538 7.57001C17.8987 6.02509 17.8987 3.52314 16.3538 1.97822C14.9866 0.61103 12.8319 0.433296 11.2597 1.55712L11.2159 1.5872C10.8222 1.86884 10.7319 2.41572 11.0136 2.80673C11.2952 3.19775 11.8421 3.29072 12.2331 3.00908L12.2769 2.979C13.1546 2.35283 14.355 2.45126 15.1151 3.21416C15.9765 4.07548 15.9765 5.47001 15.1151 6.33134L12.0472 9.40478C11.1858 10.2661 9.79131 10.2661 8.92998 9.40478C8.16709 8.64189 8.06865 7.4415 8.69482 6.5665L8.7249 6.52275C9.00654 6.129 8.91357 5.58212 8.52256 5.30322C8.13154 5.02431 7.58193 5.11455 7.30303 5.50556L7.27295 5.54931C6.14639 7.11884 6.32412 9.27353 7.69131 10.6407C9.23623 12.1856 11.7382 12.1856 13.2831 10.6407L16.3538 7.57001ZM2.146 6.93017C0.601074 8.47509 0.601074 10.977 2.146 12.522C3.51318 13.8892 5.66787 14.0669 7.24014 12.9431L7.28389 12.913C7.67764 12.6313 7.76787 12.0845 7.48623 11.6935C7.20459 11.3024 6.65771 11.2095 6.2667 11.4911L6.22295 11.5212C5.34521 12.1474 4.14482 12.0489 3.38467 11.286C2.52334 10.422 2.52334 9.02744 3.38467 8.16611L6.45264 5.09541C7.31396 4.23408 8.7085 4.23408 9.56982 5.09541C10.3327 5.8583 10.4312 7.05869 9.80498 7.93642L9.7749 7.98017C9.49326 8.37392 9.58623 8.9208 9.97725 9.1997C10.3683 9.47861 10.9179 9.38837 11.1968 8.99736L11.2269 8.95361C12.3534 7.38134 12.1757 5.22666 10.8085 3.85947C9.26357 2.31455 6.76162 2.31455 5.2167 3.85947L2.146 6.93017Z" fill="#A3A3A3"/>
</svg>
