<svg width="17" height="16" viewBox="0 0 17 16" fill="none" xmlns="http://www.w3.org/2000/svg">
<path d="M8.65678 0C8.94428 0 9.20678 0.1625 9.33178 0.421875L11.4755 4.8375L16.263 5.54375C16.5443 5.58437 16.7787 5.78125 16.8661 6.05312C16.9536 6.325 16.8818 6.61875 16.6818 6.81875L13.2099 10.2625L14.0287 15.125C14.0755 15.4062 13.9599 15.6906 13.7287 15.8594C13.4974 16.0281 13.188 16.0469 12.938 15.9125L8.65678 13.625L4.37865 15.9094C4.12553 16.0438 3.81928 16.025 3.58803 15.8562C3.35678 15.6875 3.23803 15.4031 3.2849 15.1219L4.10365 10.2594L0.631776 6.81875C0.428651 6.61875 0.359901 6.32188 0.447401 6.05312C0.534901 5.78437 0.769276 5.5875 1.05053 5.54375L5.83803 4.8375L7.98178 0.421875C8.1099 0.1625 8.36928 0 8.65678 0ZM8.65678 2.46875L7.01615 5.85C6.90678 6.07188 6.6974 6.22813 6.45053 6.26562L2.75365 6.80937L5.43803 9.46875C5.6099 9.64062 5.69115 9.88437 5.65053 10.125L5.01615 13.8656L8.30365 12.1094C8.52553 11.9906 8.79115 11.9906 9.0099 12.1094L12.2974 13.8656L11.6662 10.1281C11.6255 9.8875 11.7037 9.64375 11.8787 9.47188L14.563 6.8125L10.8662 6.26562C10.6224 6.22813 10.4099 6.075 10.3005 5.85L8.65678 2.46875Z" fill="#FBBF24"/>
</svg>
