<svg width="16" height="15" viewBox="0 0 16 15" fill="none" xmlns="http://www.w3.org/2000/svg">
<path d="M8.66522 0.992188C8.52029 0.691406 8.21404 0.5 7.87772 0.5C7.54139 0.5 7.23787 0.691406 7.09021 0.992188L5.33201 4.60977L1.40545 5.18945C1.07732 5.23867 0.803887 5.46836 0.702715 5.78281C0.601543 6.09727 0.683575 6.44453 0.918731 6.67695L3.76795 9.49609L3.09529 13.4801C3.04061 13.8082 3.17732 14.1418 3.44803 14.3359C3.71873 14.5301 4.07693 14.5547 4.37225 14.3988L7.88045 12.5258L11.3887 14.3988C11.684 14.5547 12.0422 14.5328 12.3129 14.3359C12.5836 14.1391 12.7203 13.8082 12.6656 13.4801L11.9902 9.49609L14.8394 6.67695C15.0746 6.44453 15.1594 6.09727 15.0554 5.78281C14.9515 5.46836 14.6808 5.23867 14.3527 5.18945L10.4234 4.60977L8.66522 0.992188Z" fill="#A3A3A3"/>
</svg>
