<svg width="16" height="14" viewBox="0 0 16 14" fill="none" xmlns="http://www.w3.org/2000/svg">
<path d="M7.05625 13.6315L6.97813 13.5596L1.50312 8.4752C0.54375 7.58458 0 6.33458 0 5.0252V4.92208C0 2.72208 1.5625 0.834577 3.725 0.422077C4.95625 0.184577 6.21563 0.468952 7.21875 1.1752C7.5 1.3752 7.7625 1.60645 8 1.87208C8.13125 1.72208 8.27187 1.58458 8.42188 1.45645C8.5375 1.35645 8.65625 1.2627 8.78125 1.1752C9.78437 0.468952 11.0437 0.184577 12.275 0.418952C14.4375 0.831452 16 2.72208 16 4.92208V5.0252C16 6.33458 15.4562 7.58458 14.4969 8.4752L9.02188 13.5596L8.94375 13.6315C8.6875 13.869 8.35 14.0033 8 14.0033C7.65 14.0033 7.3125 13.8721 7.05625 13.6315ZM7.47188 3.53145C7.45938 3.52208 7.45 3.50958 7.44063 3.49708L6.88438 2.87208L6.88125 2.86895C6.15937 2.05958 5.06875 1.69083 4.00625 1.89395C2.55 2.17208 1.5 3.44083 1.5 4.92208V5.0252C1.5 5.91583 1.87188 6.76895 2.525 7.3752L8 12.4596L13.475 7.3752C14.1281 6.76895 14.5 5.91583 14.5 5.0252V4.92208C14.5 3.44395 13.45 2.17208 11.9969 1.89395C10.9344 1.69083 9.84062 2.0627 9.12187 2.86895C9.12187 2.86895 9.12187 2.86895 9.11875 2.87208C9.11562 2.8752 9.11875 2.87208 9.11563 2.8752L8.55937 3.5002C8.55 3.5127 8.5375 3.52208 8.52812 3.53458C8.3875 3.6752 8.19688 3.75333 8 3.75333C7.80312 3.75333 7.6125 3.6752 7.47188 3.53458V3.53145Z" fill="#404040"/>
</svg>
