<svg width="35" height="34" viewBox="0 0 35 34" fill="none" xmlns="http://www.w3.org/2000/svg">
<path d="M16.1883 24.4601L16.1004 24.3792L9.94102 18.6593C8.86172 17.6573 8.25 16.2511 8.25 14.778V14.662C8.25 12.187 10.0078 10.0636 12.4406 9.59953C13.8258 9.33234 15.2426 9.65227 16.3711 10.4468C16.6875 10.6718 16.9828 10.932 17.25 11.2308C17.3977 11.062 17.5559 10.9073 17.7246 10.7632C17.8547 10.6507 17.9883 10.5452 18.1289 10.4468C19.2574 9.65227 20.6742 9.33234 22.0594 9.59602C24.4922 10.0601 26.25 12.187 26.25 14.662V14.778C26.25 16.2511 25.6383 17.6573 24.559 18.6593L18.3996 24.3792L18.3117 24.4601C18.0234 24.7273 17.6438 24.8784 17.25 24.8784C16.8562 24.8784 16.4766 24.7308 16.1883 24.4601ZM16.6559 13.0976C16.6418 13.087 16.6313 13.073 16.6207 13.0589L15.9949 12.3558L15.9914 12.3523C15.1793 11.4417 13.9523 11.0269 12.757 11.2554C11.1187 11.5683 9.9375 12.9956 9.9375 14.662V14.778C9.9375 15.78 10.3559 16.7398 11.0906 17.4218L17.25 23.1417L23.4094 17.4218C24.1441 16.7398 24.5625 15.78 24.5625 14.778V14.662C24.5625 12.9991 23.3812 11.5683 21.7465 11.2554C20.5512 11.0269 19.3207 11.4452 18.5121 12.3523C18.5121 12.3523 18.5121 12.3523 18.5086 12.3558C18.5051 12.3593 18.5086 12.3558 18.5051 12.3593L17.8793 13.0624C17.8687 13.0765 17.8547 13.087 17.8441 13.1011C17.6859 13.2593 17.4715 13.3472 17.25 13.3472C17.0285 13.3472 16.8141 13.2593 16.6559 13.1011V13.0976Z" fill="#171717"/>
<rect x="22.25" y="4" width="8" height="8" rx="4" fill="#EF4444"/>
</svg>
