<svg width="20" height="20" viewBox="0 0 20 20" fill="none" xmlns="http://www.w3.org/2000/svg">
<rect width="20" height="20" rx="10" fill="#171717"/>
<path d="M10.0107 13.6193C9.42543 13.6193 8.9027 13.5185 8.44247 13.3168C7.98509 13.1151 7.62287 12.8352 7.35582 12.4773C7.09162 12.1165 6.94957 11.6989 6.92969 11.2244H8.26776C8.2848 11.483 8.37145 11.7074 8.5277 11.8977C8.68679 12.0852 8.89418 12.2301 9.14986 12.3324C9.40554 12.4347 9.68963 12.4858 10.0021 12.4858C10.3459 12.4858 10.6499 12.4261 10.9141 12.3068C11.1811 12.1875 11.3899 12.0213 11.5405 11.8082C11.6911 11.5923 11.7663 11.3438 11.7663 11.0625C11.7663 10.7699 11.6911 10.5128 11.5405 10.2912C11.3928 10.0668 11.1754 9.89062 10.8885 9.76278C10.6044 9.63494 10.2607 9.57102 9.85724 9.57102H9.12003V8.49716H9.85724C10.1811 8.49716 10.4652 8.43892 10.7095 8.32244C10.9567 8.20597 11.1499 8.04403 11.2891 7.83665C11.4283 7.62642 11.4979 7.38068 11.4979 7.09943C11.4979 6.82955 11.4368 6.59517 11.3146 6.39631C11.1953 6.1946 11.0249 6.03693 10.8033 5.9233C10.5845 5.80966 10.326 5.75284 10.0277 5.75284C9.74361 5.75284 9.47798 5.8054 9.23082 5.91051C8.98651 6.01278 8.78764 6.16051 8.63423 6.35369C8.48082 6.54403 8.39844 6.77273 8.38707 7.03977H7.11293C7.12713 6.56818 7.26634 6.15341 7.53054 5.79545C7.79759 5.4375 8.14986 5.15767 8.58736 4.95597C9.02486 4.75426 9.51065 4.65341 10.0447 4.65341C10.6044 4.65341 11.0874 4.76278 11.4936 4.98153C11.9027 5.19744 12.218 5.4858 12.4396 5.84659C12.6641 6.20739 12.7749 6.60227 12.772 7.03125C12.7749 7.51989 12.6385 7.93466 12.3629 8.27557C12.0902 8.61648 11.7266 8.84517 11.272 8.96165V9.02983C11.8516 9.1179 12.3004 9.34801 12.6186 9.72017C12.9396 10.0923 13.0987 10.554 13.0959 11.1051C13.0987 11.5852 12.9652 12.0156 12.6953 12.3963C12.4283 12.777 12.0632 13.0767 11.6001 13.2955C11.1371 13.5114 10.6072 13.6193 10.0107 13.6193Z" fill="white"/>
</svg>
