<svg width="14" height="15" viewBox="0 0 14 15" fill="none" xmlns="http://www.w3.org/2000/svg">
<path d="M14 7.25C14 7.27461 14 7.29922 14 7.32383C13.9891 8.32188 13.0813 9 12.0832 9H9.40625C8.68164 9 8.09375 9.58789 8.09375 10.3125C8.09375 10.4055 8.10469 10.4957 8.12109 10.5832C8.17852 10.8621 8.29883 11.1301 8.41641 11.4008C8.5832 11.7781 8.74727 12.1527 8.74727 12.5492C8.74727 13.4187 8.15664 14.209 7.28711 14.2445C7.19141 14.2473 7.0957 14.25 6.99727 14.25C3.13359 14.25 0 11.1164 0 7.25C0 3.38359 3.13359 0.25 7 0.25C10.8664 0.25 14 3.38359 14 7.25ZM3.5 8.125C3.5 7.89294 3.40781 7.67038 3.24372 7.50628C3.07962 7.34219 2.85706 7.25 2.625 7.25C2.39294 7.25 2.17038 7.34219 2.00628 7.50628C1.84219 7.67038 1.75 7.89294 1.75 8.125C1.75 8.35706 1.84219 8.57962 2.00628 8.74372C2.17038 8.90781 2.39294 9 2.625 9C2.85706 9 3.07962 8.90781 3.24372 8.74372C3.40781 8.57962 3.5 8.35706 3.5 8.125ZM3.5 5.5C3.73206 5.5 3.95462 5.40781 4.11872 5.24372C4.28281 5.07962 4.375 4.85706 4.375 4.625C4.375 4.39294 4.28281 4.17038 4.11872 4.00628C3.95462 3.84219 3.73206 3.75 3.5 3.75C3.26794 3.75 3.04538 3.84219 2.88128 4.00628C2.71719 4.17038 2.625 4.39294 2.625 4.625C2.625 4.85706 2.71719 5.07962 2.88128 5.24372C3.04538 5.40781 3.26794 5.5 3.5 5.5ZM7.875 2.875C7.875 2.64294 7.78281 2.42038 7.61872 2.25628C7.45462 2.09219 7.23206 2 7 2C6.76794 2 6.54538 2.09219 6.38128 2.25628C6.21719 2.42038 6.125 2.64294 6.125 2.875C6.125 3.10706 6.21719 3.32962 6.38128 3.49372C6.54538 3.65781 6.76794 3.75 7 3.75C7.23206 3.75 7.45462 3.65781 7.61872 3.49372C7.78281 3.32962 7.875 3.10706 7.875 2.875ZM10.5 5.5C10.7321 5.5 10.9546 5.40781 11.1187 5.24372C11.2828 5.07962 11.375 4.85706 11.375 4.625C11.375 4.39294 11.2828 4.17038 11.1187 4.00628C10.9546 3.84219 10.7321 3.75 10.5 3.75C10.2679 3.75 10.0454 3.84219 9.88128 4.00628C9.71719 4.17038 9.625 4.39294 9.625 4.625C9.625 4.85706 9.71719 5.07962 9.88128 5.24372C10.0454 5.40781 10.2679 5.5 10.5 5.5Z" fill="#A3A3A3"/>
</svg>
