<svg width="17" height="18" viewBox="0 0 17 18" fill="none" xmlns="http://www.w3.org/2000/svg">
<path d="M11.1875 4.5C11.1875 3.75408 10.8912 3.03871 10.3637 2.51126C9.83629 1.98382 9.12092 1.6875 8.375 1.6875C7.62908 1.6875 6.91371 1.98382 6.38626 2.51126C5.85882 3.03871 5.5625 3.75408 5.5625 4.5C5.5625 5.24592 5.85882 5.96129 6.38626 6.48874C6.91371 7.01618 7.62908 7.3125 8.375 7.3125C9.12092 7.3125 9.83629 7.01618 10.3637 6.48874C10.8912 5.96129 11.1875 5.24592 11.1875 4.5ZM3.875 4.5C3.875 3.30653 4.34911 2.16193 5.19302 1.31802C6.03693 0.474106 7.18153 0 8.375 0C9.56847 0 10.7131 0.474106 11.557 1.31802C12.4009 2.16193 12.875 3.30653 12.875 4.5C12.875 5.69347 12.4009 6.83807 11.557 7.68198C10.7131 8.52589 9.56847 9 8.375 9C7.18153 9 6.03693 8.52589 5.19302 7.68198C4.34911 6.83807 3.875 5.69347 3.875 4.5ZM2.2332 16.3125H14.5168C14.2039 14.0871 12.2914 12.375 9.98164 12.375H6.76836C4.45859 12.375 2.54609 14.0871 2.2332 16.3125ZM0.5 16.9559C0.5 13.493 3.30547 10.6875 6.76836 10.6875H9.98164C13.4445 10.6875 16.25 13.493 16.25 16.9559C16.25 17.5324 15.7824 18 15.2059 18H1.54414C0.967578 18 0.5 17.5324 0.5 16.9559Z" fill="#171717"/>
</svg>
