<svg width="12" height="12" viewBox="0 0 12 12" fill="none" xmlns="http://www.w3.org/2000/svg">
<path d="M6.75 0.9375C6.75 0.453516 6.35898 0.0625 5.875 0.0625C5.39102 0.0625 5 0.453516 5 0.9375V4.875H1.0625C0.578516 4.875 0.1875 5.26602 0.1875 5.75C0.1875 6.23398 0.578516 6.625 1.0625 6.625H5V10.5625C5 11.0465 5.39102 11.4375 5.875 11.4375C6.35898 11.4375 6.75 11.0465 6.75 10.5625V6.625H10.6875C11.1715 6.625 11.5625 6.23398 11.5625 5.75C11.5625 5.26602 11.1715 4.875 10.6875 4.875H6.75V0.9375Z" fill="#A3A3A3"/>
</svg>
