<svg width="12" height="13" viewBox="0 0 12 13" fill="none" xmlns="http://www.w3.org/2000/svg">
<path d="M0 1.68673V5.77462C0 6.23946 0.183203 6.68517 0.511328 7.01329L5.32383 11.8258C6.00742 12.5094 7.11484 12.5094 7.79844 11.8258L11.4488 8.1754C12.1324 7.49181 12.1324 6.38438 11.4488 5.70079L6.63633 0.888291C6.3082 0.560166 5.8625 0.376963 5.39766 0.376963H1.3125C0.587891 0.374228 0 0.962119 0 1.68673ZM3.0625 2.56173C3.29456 2.56173 3.51712 2.65392 3.68122 2.81801C3.84531 2.9821 3.9375 3.20466 3.9375 3.43673C3.9375 3.66879 3.84531 3.89135 3.68122 4.05545C3.51712 4.21954 3.29456 4.31173 3.0625 4.31173C2.83044 4.31173 2.60788 4.21954 2.44378 4.05545C2.27969 3.89135 2.1875 3.66879 2.1875 3.43673C2.1875 3.20466 2.27969 2.9821 2.44378 2.81801C2.60788 2.65392 2.83044 2.56173 3.0625 2.56173Z" fill="white"/>
</svg>
