<svg width="13" height="13" viewBox="0 0 13 13" fill="none" xmlns="http://www.w3.org/2000/svg">
<path d="M0.5 1.43746V5.52535C0.5 5.99019 0.683203 6.4359 1.01133 6.76402L5.82383 11.5765C6.50742 12.2601 7.61484 12.2601 8.29844 11.5765L11.9488 7.92613C12.6324 7.24254 12.6324 6.13512 11.9488 5.45152L7.13633 0.639023C6.8082 0.310898 6.3625 0.127695 5.89766 0.127695H1.8125C1.08789 0.124961 0.5 0.712851 0.5 1.43746ZM3.5625 2.31246C3.79456 2.31246 4.01712 2.40465 4.18122 2.56874C4.34531 2.73284 4.4375 2.9554 4.4375 3.18746C4.4375 3.41953 4.34531 3.64208 4.18122 3.80618C4.01712 3.97027 3.79456 4.06246 3.5625 4.06246C3.33044 4.06246 3.10788 3.97027 2.94378 3.80618C2.77969 3.64208 2.6875 3.41953 2.6875 3.18746C2.6875 2.9554 2.77969 2.73284 2.94378 2.56874C3.10788 2.40465 3.33044 2.31246 3.5625 2.31246Z" fill="#A3A3A3"/>
</svg>
