<svg width="17" height="16" viewBox="0 0 17 16" fill="none" xmlns="http://www.w3.org/2000/svg">
<path d="M9.56295 0.5625C9.39732 0.21875 9.04732 0 8.66295 0C8.27857 0 7.93169 0.21875 7.76295 0.5625L5.75357 4.69688L1.26607 5.35938C0.891071 5.41563 0.578571 5.67812 0.462946 6.0375C0.347321 6.39687 0.44107 6.79375 0.70982 7.05937L3.96607 10.2812L3.19732 14.8344C3.13482 15.2094 3.29107 15.5906 3.60045 15.8125C3.90982 16.0344 4.3192 16.0625 4.6567 15.8844L8.66607 13.7437L12.6754 15.8844C13.0129 16.0625 13.4223 16.0375 13.7317 15.8125C14.0411 15.5875 14.1973 15.2094 14.1348 14.8344L13.3629 10.2812L16.6192 7.05937C16.8879 6.79375 16.9848 6.39687 16.8661 6.0375C16.7473 5.67812 16.4379 5.41563 16.0629 5.35938L11.5723 4.69688L9.56295 0.5625Z" fill="#FBBF24"/>
</svg>
