<svg width="16" height="14" viewBox="0 0 16 14" fill="none" xmlns="http://www.w3.org/2000/svg">
<path d="M0 1.375C0 0.752734 0.502734 0.25 1.125 0.25H14.625C15.2473 0.25 15.75 0.752734 15.75 1.375C15.75 1.99727 15.2473 2.5 14.625 2.5H1.125C0.502734 2.5 0 1.99727 0 1.375ZM0 7C0 6.37773 0.502734 5.875 1.125 5.875H14.625C15.2473 5.875 15.75 6.37773 15.75 7C15.75 7.62227 15.2473 8.125 14.625 8.125H1.125C0.502734 8.125 0 7.62227 0 7ZM15.75 12.625C15.75 13.2473 15.2473 13.75 14.625 13.75H1.125C0.502734 13.75 0 13.2473 0 12.625C0 12.0027 0.502734 11.5 1.125 11.5H14.625C15.2473 11.5 15.75 12.0027 15.75 12.625Z" fill="#171717"/>
</svg>
