<svg width="32" height="32" viewBox="0 0 32 32" fill="none" xmlns="http://www.w3.org/2000/svg">
<path d="M18.3343 9.4418C14.9101 9.56836 6.41633 10.5316 6.41633 17.7035C6.41633 25.4027 16.1405 25.7191 19.3187 20.741C19.7757 21.4582 21.8077 23.3777 22.5038 24.0316L26.4976 20.0941C26.4976 20.0941 24.2265 18.3152 24.2265 16.3816V6.03867C24.2265 4.25977 22.5038 0.251953 16.3304 0.251953C10.1429 0.251953 6.85929 4.11914 6.85929 7.58555L12.0273 8.06367C13.1734 4.5832 15.8382 4.5832 15.8382 4.5832C18.6999 4.57617 18.3343 6.67852 18.3343 9.4418ZM18.3343 15.5449C18.3343 21.1699 12.414 20.3262 12.414 16.7543C12.414 13.4355 15.9648 12.7676 18.3343 12.6902V15.5449ZM27.8968 27.041C27.3554 27.7441 22.9749 31.752 15.6273 31.752C8.27961 31.752 2.65461 26.7246 0.931951 24.6504C0.453826 24.109 1.00226 23.8559 1.31867 24.0668C6.47258 27.1957 14.5234 32.3496 27.5101 26.1973C28.0374 25.9371 28.4452 26.3379 27.8968 27.041ZM30.6952 27.1957C30.2382 28.3066 29.5702 29.0801 29.2046 29.3754C28.8179 29.6918 28.5366 29.5652 28.7476 29.1082C28.9585 28.6512 30.1046 25.8387 29.6405 25.241C29.1835 24.6574 27.039 24.9387 26.2655 25.016C25.5062 25.0863 25.3515 25.1566 25.2812 24.9949C25.1194 24.5941 26.8069 23.9051 27.9179 23.7645C29.0218 23.6379 30.8007 23.7082 31.1523 24.1652C31.4124 24.5238 31.1523 26.0707 30.6952 27.1957Z" fill="#A3A3A3"/>
</svg>
