<svg width="36" height="36" viewBox="0 0 36 36" fill="none" xmlns="http://www.w3.org/2000/svg">
<path d="M29.4047 12.4604C29.025 12.3339 28.6453 12.2144 28.2656 12.1019C28.3289 11.8417 28.3852 11.5815 28.4414 11.3214C29.3062 7.13076 28.7367 3.76279 26.8172 2.65186C24.968 1.59014 21.9516 2.69404 18.9 5.35186C18.5977 5.61201 18.3023 5.88623 18.0211 6.16045C17.8312 5.97764 17.6344 5.79482 17.4375 5.61904C14.2383 2.77842 11.032 1.58311 9.1125 2.70107C7.27031 3.76982 6.72187 6.94092 7.49531 10.9065C7.57266 11.3003 7.65703 11.687 7.75547 12.0808C7.30547 12.2073 6.8625 12.3479 6.44766 12.4956C2.69297 13.7964 0 15.8495 0 17.9729C0 20.1667 2.86875 22.3675 6.77109 23.7034C7.0875 23.8089 7.40391 23.9144 7.72734 24.0058C7.62188 24.4276 7.53047 24.8425 7.44609 25.2714C6.70781 29.1737 7.28438 32.2675 9.12656 33.3292C11.025 34.4261 14.2172 33.3011 17.325 30.58C17.5711 30.362 17.8172 30.137 18.0633 29.8979C18.3727 30.2003 18.6961 30.4886 19.0195 30.7698C22.0289 33.3573 25.0031 34.405 26.8383 33.3433C28.7367 32.2464 29.3555 28.9206 28.5539 24.8706C28.4906 24.5612 28.4203 24.2448 28.343 23.9214C28.568 23.8581 28.7859 23.7878 29.0039 23.7175C33.0609 22.3745 36 20.2019 36 17.9729C36 15.8425 33.2297 13.7753 29.4047 12.4604ZM19.8914 6.49092C22.507 4.21279 24.9469 3.31982 26.0578 3.95967C27.2461 4.6417 27.7031 7.39795 26.9578 11.019C26.9086 11.2581 26.8594 11.4901 26.7961 11.7222C25.2352 11.3706 23.6531 11.1175 22.0641 10.9769C21.15 9.66904 20.1516 8.41748 19.0688 7.24326C19.343 6.98311 19.6102 6.73701 19.8914 6.49092ZM11.7562 21.6222C12.1148 22.2339 12.4805 22.8456 12.8672 23.4433C11.7703 23.3237 10.6805 23.1479 9.60469 22.9159C9.91406 21.9034 10.3008 20.8558 10.7508 19.787C11.0742 20.4058 11.4047 21.0175 11.7562 21.6222ZM9.62578 13.1636C10.6383 12.9386 11.7141 12.7558 12.832 12.6151C12.4594 13.1987 12.0938 13.7964 11.7492 14.4011C11.4047 14.9987 11.0672 15.6104 10.7508 16.2292C10.3078 15.1815 9.93516 14.155 9.62578 13.1636ZM11.5523 18.0081C12.0164 17.0378 12.5227 16.0886 13.057 15.1534C13.5914 14.2183 14.168 13.3112 14.7727 12.4183C15.8273 12.3409 16.9031 12.2987 18 12.2987C19.0969 12.2987 20.1797 12.3409 21.2273 12.4183C21.825 13.3042 22.3945 14.2112 22.9359 15.1394C23.4773 16.0675 23.9836 17.0167 24.4617 17.98C23.9906 18.9503 23.4844 19.9065 22.943 20.8487C22.4086 21.7839 21.8391 22.6909 21.2414 23.5909C20.1938 23.6683 19.1039 23.7034 18 23.7034C16.8961 23.7034 15.8273 23.6683 14.7937 23.605C14.182 22.712 13.6055 21.7979 13.0641 20.8628C12.5227 19.9276 12.0234 18.9784 11.5523 18.0081ZM24.2508 21.6081C24.6094 20.9894 24.9469 20.3636 25.2773 19.7308C25.7273 20.7503 26.1211 21.7839 26.4656 22.8456C25.3758 23.0917 24.2719 23.2815 23.1609 23.4081C23.5406 22.8175 23.8992 22.2128 24.2508 21.6081ZM25.2633 16.2292C24.9328 15.6104 24.5953 14.9917 24.2437 14.387C23.8992 13.7894 23.5406 13.1987 23.168 12.6151C24.3 12.7558 25.3828 12.9456 26.3953 13.1776C26.0719 14.2183 25.6922 15.2308 25.2633 16.2292ZM18.0141 8.31904C18.7523 9.12061 19.4484 9.96436 20.0953 10.8362C18.7031 10.7729 17.3039 10.7729 15.9117 10.8362C16.6008 9.9292 17.3109 9.08545 18.0141 8.31904ZM9.85781 4.00889C11.0391 3.31982 13.6617 4.3042 16.425 6.75107C16.6008 6.90576 16.7766 7.07451 16.9594 7.24326C15.8695 8.41748 14.8641 9.66904 13.943 10.9769C12.3539 11.1175 10.7789 11.3636 9.21797 11.7081C9.12656 11.3495 9.04922 10.9839 8.97188 10.6183C8.31094 7.21514 8.74687 4.64873 9.85781 4.00889ZM8.13516 22.5433C7.83984 22.4589 7.55156 22.3675 7.26328 22.269C5.76563 21.7979 4.06406 21.0526 2.83359 20.0753C2.12344 19.5831 1.64531 18.8237 1.51172 17.9729C1.51172 16.6862 3.73359 15.0409 6.93984 13.9229C7.34062 13.7823 7.74844 13.6558 8.15625 13.5362C8.63437 15.062 9.21094 16.5597 9.87891 18.0081C9.20391 19.4776 8.62031 20.9964 8.13516 22.5433ZM16.3336 29.4339C15.1734 30.4956 13.8305 31.3394 12.368 31.9159C11.5875 32.2886 10.6875 32.3237 9.88594 32.0073C8.76797 31.3604 8.30391 28.8784 8.93672 25.5386C9.01406 25.1448 9.09844 24.7511 9.19688 24.3644C10.7719 24.7019 12.3609 24.9339 13.9711 25.0534C14.8992 26.3683 15.9187 27.6269 17.0086 28.8081C16.7836 29.0261 16.5586 29.237 16.3336 29.4339ZM18.0562 27.7253C17.3391 26.9519 16.6219 26.094 15.9258 25.1729C16.6008 25.2011 17.2969 25.2151 18 25.2151C18.7242 25.2151 19.4344 25.2011 20.1375 25.1659C19.4906 26.0589 18.7945 26.9097 18.0562 27.7253ZM27.2461 29.8347C27.1828 30.6925 26.7609 31.494 26.0859 32.0354C24.968 32.6823 22.5844 31.8386 20.0109 29.6308C19.7156 29.3776 19.4203 29.1034 19.118 28.8222C20.1938 27.6339 21.1852 26.3753 22.0852 25.0534C23.6953 24.9198 25.2984 24.6737 26.8805 24.3151C26.9508 24.6034 27.0141 24.8917 27.0703 25.1729C27.4148 26.6917 27.4711 28.2737 27.2461 29.8347ZM28.5258 22.2761C28.3289 22.3394 28.132 22.4026 27.9281 22.4589C27.4359 20.9261 26.8313 19.4284 26.1352 17.9729C26.8102 16.5386 27.3797 15.062 27.8578 13.5503C28.2234 13.6558 28.575 13.7683 28.9125 13.8808C32.1891 15.0058 34.4883 16.6792 34.4883 17.9589C34.4883 19.337 32.0344 21.1159 28.5258 22.2761ZM18 21.2214C19.7789 21.2214 21.2203 19.78 21.2203 18.0011C21.2203 16.2222 19.7789 14.7808 18 14.7808C16.2211 14.7808 14.7797 16.2222 14.7797 18.0011C14.7797 19.78 16.2211 21.2214 18 21.2214Z" fill="#A3A3A3"/>
</svg>
