<svg width="36" height="36" viewBox="0 0 36 36" fill="none" xmlns="http://www.w3.org/2000/svg">
<path d="M18 0.564453C8.38491 0.564453 0.5625 8.38686 0.5625 18.002C0.5625 27.617 8.38491 35.4395 18 35.4395C27.6151 35.4395 35.4375 27.617 35.4375 18.002C35.4375 8.38686 27.6151 0.564453 18 0.564453ZM29.5291 8.60581C31.6036 11.1403 32.8598 14.3684 32.8925 17.8839C32.4015 17.78 27.4772 16.7813 22.5213 17.4045C22.1169 16.4173 21.7351 15.5488 21.2123 14.4785C26.7192 12.2301 29.2151 9.03057 29.5291 8.60581ZM27.8734 6.88344C27.6055 7.26502 25.3634 10.2785 20.0672 12.2637C17.6265 7.77943 14.9214 4.09562 14.5097 3.54437C19.233 2.4058 24.2104 3.63366 27.8734 6.88344ZM11.6677 4.54555C12.0604 5.08407 14.722 8.77245 17.1899 13.1595C10.2228 15.0096 4.08642 14.9829 3.42028 14.9742C4.38609 10.3523 7.5008 6.51099 11.6677 4.54555ZM3.1057 18.0247C3.1057 17.8724 3.10873 17.7208 3.1133 17.5695C3.76495 17.5829 10.9827 17.6759 18.4207 15.4499C18.8471 16.2844 19.2544 17.1314 19.6283 17.9776C14.2424 19.4945 9.34903 23.8505 6.93471 27.9834C4.55583 25.3429 3.1057 21.8502 3.1057 18.0247ZM8.85776 29.7748C10.4136 26.5944 14.6359 22.4889 20.6407 20.4404C22.7318 25.8744 23.5965 30.4285 23.818 31.7352C19.0289 33.7752 13.2701 33.2155 8.85776 29.7748ZM26.322 30.3717C26.1693 29.4656 25.3766 25.1055 23.4285 19.7522C28.0958 19.005 32.1964 20.228 32.706 20.3889C32.0421 24.5331 29.6634 28.1123 26.322 30.3717Z" fill="#A3A3A3"/>
</svg>
