<svg width="36" height="36" viewBox="0 0 36 36" fill="none" xmlns="http://www.w3.org/2000/svg">
<path d="M11.0039 31.4809L10.118 33.5551C8.80312 32.8871 7.59375 32.0645 6.49688 31.1012L8.09297 29.5051C8.97188 30.2715 9.94922 30.9395 11.0039 31.4809ZM2.85469 19.127H0.597656C0.696094 20.6176 0.977344 22.059 1.42031 23.423L3.51562 22.5863C3.17109 21.4824 2.93906 20.3223 2.85469 19.127ZM2.85469 16.877C2.95312 15.5551 3.22031 14.2754 3.63516 13.073L1.56094 12.1871C1.03359 13.6637 0.703125 15.2387 0.597656 16.877H2.85469ZM4.52109 11.0059C5.06953 9.9582 5.73047 8.98086 6.49688 8.08789L4.90078 6.4918C3.9375 7.58867 3.10781 8.79805 2.44687 10.1129L4.52109 11.0059ZM27.9141 29.5051C26.9367 30.3488 25.8469 31.073 24.6727 31.6426L25.5094 33.7379C26.9648 33.0418 28.3078 32.1488 29.5102 31.0941L27.9141 29.5051ZM8.08594 6.49883C9.06328 5.65508 10.1531 4.93086 11.3273 4.36133L10.4906 2.26602C9.03516 2.96211 7.69219 3.85508 6.49688 4.90977L8.08594 6.49883ZM31.4789 24.998C30.9305 26.0457 30.2695 27.023 29.5031 27.916L31.0992 29.5121C32.0625 28.4152 32.8922 27.1988 33.5531 25.891L31.4789 24.998ZM33.1453 19.127C33.0469 20.4488 32.7797 21.7285 32.3648 22.9309L34.4391 23.8168C34.9664 22.3332 35.2969 20.7582 35.3953 19.1199H33.1453V19.127ZM22.5844 32.4863C21.4805 32.8379 20.3203 33.0629 19.125 33.1473V35.4043C20.6156 35.3059 22.057 35.0246 23.4211 34.5816L22.5844 32.4863ZM16.875 33.1473C15.5531 33.0488 14.2734 32.7816 13.0711 32.3668L12.1852 34.441C13.6687 34.9684 15.2438 35.2988 16.882 35.3973V33.1473H16.875ZM32.4844 13.4176C32.8359 14.5215 33.0609 15.6816 33.1453 16.877H35.4023C35.3039 15.3863 35.0227 13.9449 34.5797 12.5809L32.4844 13.4176ZM6.49688 27.916C5.65313 26.9387 4.92891 25.8488 4.35938 24.6746L2.26406 25.5113C2.96016 26.9668 3.85313 28.3098 4.90781 29.5121L6.49688 27.916ZM19.125 2.85664C20.4469 2.95508 21.7195 3.22227 22.9289 3.63711L23.8148 1.56289C22.3383 1.03555 20.7633 0.705078 19.125 0.599609V2.85664ZM13.4156 3.51758C14.5195 3.16602 15.6797 2.94102 16.875 2.85664V0.599609C15.3844 0.698047 13.943 0.979297 12.5789 1.42227L13.4156 3.51758ZM31.0992 6.4918L29.5031 8.08789C30.3469 9.06523 31.0711 10.1551 31.6477 11.3293L33.743 10.4926C33.0469 9.03711 32.1539 7.69414 31.0992 6.4918ZM27.9141 6.49883L29.5102 4.90273C28.4133 3.93945 27.2039 3.10977 25.8891 2.44883L25.0031 4.52305C26.0438 5.07148 27.0281 5.73242 27.9141 6.49883Z" fill="#A3A3A3"/>
</svg>
