<svg width="28" height="36" viewBox="0 0 28 36" fill="none" xmlns="http://www.w3.org/2000/svg">
<path d="M27.5 24.4707C27.377 25.2266 26.5332 32.2051 26.4102 33.752C18.1218 33.4497 10.9488 33.4185 0.5 33.752V31.959C3.6962 31.3298 4.76284 31.3951 4.78906 29.4805C4.91513 24.3953 5.03684 12.3142 4.78906 6.83984C4.71671 4.83875 3.93617 4.95793 0.5 4.30859V2.51562C5.69511 2.68142 18.4953 3.11687 26.0234 2.25195C25.7773 4.94141 25.4784 11.1465 25.4784 11.1465H23.8438C23.0666 8.13465 22.5248 4.7832 19.9941 4.7832H10.3613C9.64062 4.7832 9.60547 5.0293 9.60547 5.46875V16.9824C13.6836 17.0176 15.8281 16.8066 15.8281 16.8066C17.9213 16.7398 17.7659 16.2088 18.6934 12.2187H20.5039C20.194 19.3449 20.229 16.566 20.3809 23.4863H18.5703C17.9266 20.6677 17.9329 19.194 15.7929 19.162C15.7929 19.162 14.2812 19.0214 9.6054 19.0214V28.7949C9.6054 30.623 10.6074 31.4843 12.7167 31.4843H18.9922C23.4666 31.4843 23.6725 29.7268 25.9356 24.4706H27.5V24.4707Z" fill="#A3A3A3"/>
</svg>
