<svg width="46" height="19" viewBox="0 0 46 19" fill="none" xmlns="http://www.w3.org/2000/svg">
<path d="M43.1102 4.55117L39.257 12.2785L35.3969 4.55117H32.7602L33.5266 5.99961C32.718 4.66367 31.0023 4.17148 29.0758 4.17148C26.8398 4.17148 24.3016 4.7832 24.0484 7.20195H26.418C26.5164 6.23164 27.5219 5.66914 28.8789 5.66914C30.707 5.66914 31.7617 6.34414 31.7617 7.98945V8.22852C30.8687 8.22852 29.793 8.23555 28.8297 8.25664C25.8484 8.31992 23.9359 8.95977 23.4367 10.6754C23.507 10.3098 23.5422 9.93008 23.5422 9.53633C23.5422 5.87305 20.7508 4.17852 18.2406 4.17852C16.743 4.17852 15.2172 4.56523 14.1133 5.88008V0.212891H11.8562V12.1309C11.8562 12.8551 11.8141 13.741 11.7789 14.4582H13.9937C14.043 14.0152 14.0711 13.5512 14.0711 13.0871C15.0273 14.2543 16.5602 14.8379 18.1984 14.8379C20.793 14.8379 22.7617 13.298 23.3523 11.027C23.3172 11.2238 23.3031 11.4348 23.3031 11.6598C23.3031 13.3543 24.7867 14.8238 27.5641 14.8238C29.4344 14.8238 30.7844 14.423 31.9164 13.0309C31.9164 13.4949 31.9375 13.966 31.9937 14.4512H34.0891C34.0398 13.8746 34.0187 13.2207 34.0187 12.5668V7.9543C34.0187 7.30039 33.8992 6.74492 33.6812 6.28086L38.0055 14.4441L36.0016 18.248H38.5258L45.5008 4.55117H43.1102ZM17.6359 13.291C15.5547 13.291 14.1062 11.7793 14.1062 9.5082C14.1062 7.23008 15.5547 5.72539 17.6359 5.72539C19.7312 5.72539 21.1656 7.23008 21.1656 9.5082C21.1656 11.7793 19.7312 13.291 17.6359 13.291ZM31.7617 9.96523C31.7617 12.0746 30.5031 13.3684 28.1336 13.3684C26.3687 13.3684 25.6727 12.4262 25.6727 11.5543C25.6727 10.2113 26.9453 9.83867 28.9914 9.77539C29.9125 9.74023 30.932 9.7332 31.7617 9.7332V9.96523ZM2.8 10.0777H11.8562V9.48008C11.8562 5.84492 9.52891 4.17852 6.34375 4.17852C2.35 4.17852 0.507812 6.34414 0.507812 9.63476C0.507812 12.623 2.28672 14.8379 6.30859 14.8379C8.51641 14.8379 11.0898 14.0152 11.5398 11.5965H9.2125C8.36875 14.1137 3.04609 14.177 2.8 10.0777ZM9.47969 8.57305H2.84219C3.32734 4.59336 9.31797 4.72695 9.47969 8.57305Z" fill="#A3A3A3"/>
</svg>
