<svg width="36" height="36" viewBox="0 0 36 36" fill="none" xmlns="http://www.w3.org/2000/svg">
<path d="M35.4405 18.0025C35.4405 27.6367 27.6347 35.4425 18.0005 35.4425C16.2003 35.4425 14.4704 35.1682 12.8389 34.6619C13.5491 33.5016 14.611 31.6029 15.0048 30.091C15.2158 29.2752 16.0878 25.9419 16.0878 25.9419C16.6574 27.0249 18.317 27.9461 20.0821 27.9461C25.3422 27.9461 29.1326 23.1079 29.1326 17.0953C29.1326 11.3359 24.428 7.02515 18.3803 7.02515C10.8558 7.02515 6.85442 12.0743 6.85442 17.5806C6.85442 20.1403 8.21868 23.3259 10.3916 24.3386C10.7222 24.4933 10.898 24.423 10.9753 24.1065C11.0316 23.8674 11.3269 22.679 11.4605 22.1304C11.5027 21.9546 11.4816 21.7999 11.341 21.6311C10.6307 20.7521 10.0541 19.1488 10.0541 17.6509C10.0541 13.8042 12.9655 10.0842 17.9302 10.0842C22.2129 10.0842 25.2156 13.0026 25.2156 17.1797C25.2156 21.8984 22.8317 25.1684 19.7305 25.1684C18.0216 25.1684 16.7347 23.7549 17.1496 22.0179C17.6419 19.9434 18.5913 17.7071 18.5913 16.2093C18.5913 14.8731 17.874 13.755 16.3831 13.755C14.6321 13.755 13.2256 15.5623 13.2256 17.9884C13.2256 19.5355 13.746 20.5763 13.746 20.5763C13.746 20.5763 12.0231 27.8758 11.7067 29.24C11.3551 30.745 11.4957 32.8687 11.6434 34.247C5.15964 31.7084 0.560547 25.3934 0.560547 18.0025C0.560547 8.36831 8.36635 0.5625 18.0005 0.5625C27.6347 0.5625 35.4405 8.36831 35.4405 18.0025Z" fill="#A3A3A3"/>
</svg>
